<svg version="1.2" xmlns="http://www.w3.org/2000/svg" viewBox="0 0 172 40" width="172" height="40"><style>.a{fill:#fff}</style><path class="a" d="m61.6 25c-2.3 2.6-5 4.6-9 4.6-5.7 0-10.4-4.2-11-9.8-0.7-6.3 4.4-12.3 11-12.3 6.9 0 11.1 6.8 10 13.3h-15.4c0.9 2.1 3 3.6 5.4 3.6 1.7 0 3.2-0.8 4.5-2.2zm-14.4-8.2h10.3c0-2.2-2.5-4-4.9-4-2.9 0-5.4 1.9-5.4 4z"/><path class="a" d="m73.5 8.4v6h10.5v5.6h-10.5v9h-6.3v-20.6-5.6h19.7v5.6z"/><path class="a" d="m109.7 18.7c0 1.5-0.3 2.9-0.9 4.3q-0.9 2-2.4 3.5c-1 1.1-2.2 1.8-3.5 2.4q-2 0.9-4.3 0.9-2.2 0-4.3-0.9-2-0.8-3.5-2.4c-1.1-1-1.9-2.2-2.4-3.5q-0.9-2-0.9-4.3c0-1.4 0.3-2.9 0.9-4.3 0.5-1.3 1.3-2.5 2.4-3.5q1.5-1.5 3.5-2.4c1.3-0.5 2.8-0.9 4.3-0.9 1.5 0 2.9 0.3 4.3 0.9 1.3 0.5 2.5 1.3 3.5 2.3q1.5 1.6 2.4 3.6 0.8 2.1 0.9 4.3zm-5.5 0c0-3.1-2.5-5.6-5.6-5.6-3.1 0-5.6 2.5-5.6 5.6 0 3.1 2.5 5.6 5.6 5.6 3.1 0 5.6-2.5 5.6-5.6z"/><path class="a" d="m126.8 7.9v5.3q-0.6-0.1-1.3-0.1c-3 0-5.5 2.3-5.5 6.3 0 2.6 0 9.6 0 9.6h-6.2v-20.7h6.2v2.4c0.2-0.7 1.4-3 4.9-3 0.6 0 1.3 0 1.9 0.2z"/><path class="a" d="m139.3 13c0 3.1 0 4.8 0 6.7 0 4 1.6 4 3.9 4v5.6c-7.8 1.4-10.4-2.6-10.4-7.6 0-2.2 0-4.8 0-8.7h-3.1v-4.8h3.1v-7.7h6.5v7.7h5.6v4.8c0 0-5.6 0-5.6 0z"/><path class="a" d="m168.7 25c-2.3 2.6-5.1 4.6-9 4.6-5.7 0-10.4-4.2-11-9.8-0.7-6.3 4.4-12.3 11-12.3 6.9 0 11.1 6.8 10 13.3h-15.4c0.9 2.1 2.9 3.6 5.4 3.6 1.6 0 3.2-0.8 4.5-2.2zm-14.4-8.2h10.3c0-2.2-2.5-4-4.9-4-2.9 0-5.4 1.9-5.4 4z"/><path fill-rule="evenodd" class="a" d="m26.6 2.3l-11.5 12.8-13.9-0.1 10.5-12z"/><path fill-rule="evenodd" class="a" d="m12.4 29.3l-11.2-12.4h13.6l11.5 13z"/><path fill-rule="evenodd" class="a" d="m21.8 22.8v-3.6h15.4l-9.1 10.8z"/><path fill-rule="evenodd" class="a" d="m21.8 13.5v-3.7l6.3-7.1 9.3 10.8z"/><path class="a" d="m68.9 34.5h-1.4v-0.5h3.4v0.5h-1.5v3.8h-0.5v-3.8z"/><path class="a" d="m73 34h3.1v0.4h-2.6v1.5h2.3v0.4h-2.3v1.6h2.7v0.4h-3.2z"/><path class="a" d="m78.2 36.2v-0.1c0-1.2 0.9-2.2 2.2-2.2 0.7 0 1.2 0.3 1.6 0.7l-0.3 0.4c-0.3-0.4-0.8-0.6-1.3-0.6-1 0-1.7 0.7-1.7 1.7 0 1 0.7 1.8 1.7 1.8 0.6 0 0.9-0.2 1.4-0.6l0.3 0.3c-0.5 0.5-1 0.8-1.7 0.8-1.3 0-2.2-1-2.2-2.2z"/><path class="a" d="m84.1 34h0.5v1.9h2.5v-1.9h0.5v4.3h-0.5v-1.9h-2.5v1.9h-0.5z"/><path class="a" d="m90 34h0.5l2.7 3.5v-3.5h0.5v4.3h-0.4l-2.8-3.5v3.5h-0.5z"/><path class="a" d="m96 36.2v-0.1c0-1.1 0.8-2.2 2.2-2.2 1.3 0 2.1 1.1 2.1 2.2 0 1.2-0.8 2.3-2.2 2.3-1.3 0-2.1-1.1-2.1-2.2zm3.8 0v-0.1c0-0.9-0.7-1.7-1.7-1.7-0.9 0-1.6 0.8-1.6 1.7 0 1 0.7 1.8 1.7 1.8 0.9 0 1.6-0.8 1.6-1.7z"/><path class="a" d="m102.6 34h0.5v3.9h2.4v0.4h-2.9z"/><path class="a" d="m107.2 36.2v-0.1c0-1.1 0.9-2.2 2.2-2.2 1.3 0 2.2 1.1 2.2 2.2 0 1.2-0.9 2.3-2.2 2.3-1.3 0-2.2-1.1-2.2-2.2zm3.9 0v-0.1c0-0.9-0.7-1.7-1.7-1.7-1 0-1.7 0.8-1.7 1.7 0 1 0.7 1.8 1.7 1.8 1 0 1.7-0.8 1.7-1.7z"/><path class="a" d="m113.7 36.2v-0.1c0-1.1 0.8-2.2 2.1-2.2 0.8 0 1.2 0.2 1.6 0.6l-0.3 0.4c-0.3-0.3-0.7-0.5-1.3-0.5-0.9 0-1.6 0.8-1.6 1.7 0 1.1 0.6 1.8 1.7 1.8 0.5 0 0.9-0.2 1.2-0.4v-1.1h-1.3v-0.4h1.8v1.7c-0.4 0.4-1 0.7-1.7 0.7-1.4 0-2.2-1-2.2-2.2z"/><path class="a" d="m121.1 36.6l-1.8-2.6h0.6l1.4 2.1 1.5-2.1h0.6l-1.8 2.6v1.7h-0.5c0 0 0-1.7 0-1.7z"/><path class="a" d="m128.4 34h0.5v1.9h2.5v-1.9h0.5v4.3h-0.5v-1.9h-2.5v1.9h-0.5z"/><path class="a" d="m134.2 36.2v-0.1c0-1.1 0.9-2.2 2.2-2.2 1.3 0 2.2 1.1 2.2 2.2 0 1.2-0.9 2.3-2.2 2.3-1.4 0-2.2-1.1-2.2-2.2zm3.9 0v-0.1c0-0.9-0.7-1.7-1.7-1.7-1 0-1.7 0.8-1.7 1.7 0 1 0.7 1.8 1.7 1.8 1 0 1.7-0.8 1.7-1.7z"/><path class="a" d="m140.8 34h1.9c0.5 0 0.9 0.2 1.2 0.4q0.3 0.4 0.3 0.9c0 0.7-0.5 1.1-1.1 1.2l1.3 1.8h-0.6l-1.3-1.7h-1.2v1.7h-0.5v-4.3zm1.8 2.2c0.7 0 1.1-0.3 1.1-0.9 0-0.5-0.4-0.9-1.1-0.9h-1.3v1.8z"/><path class="a" d="m146.6 34h0.4v4.3h-0.4z"/><path class="a" d="m149.3 38l2.8-3.6h-2.7v-0.4h3.4v0.3l-2.8 3.6h2.8v0.4h-3.5v-0.3z"/><path class="a" d="m154.6 36.2v-0.1c0-1.1 0.9-2.2 2.2-2.2 1.3 0 2.2 1.1 2.2 2.2 0 1.2-0.9 2.3-2.2 2.3-1.3 0-2.2-1.1-2.2-2.2zm3.9 0v-0.1c0-0.9-0.7-1.7-1.7-1.7-1 0-1.7 0.8-1.7 1.7 0 1 0.7 1.8 1.7 1.8 1 0 1.7-0.8 1.7-1.7z"/><path class="a" d="m161.3 34h0.4l2.7 3.5v-3.5h0.5v4.3h-0.4l-2.8-3.5v3.5h-0.4z"/><path class="a" d="m167.1 37.7l0.3-0.4c0.4 0.4 0.8 0.6 1.4 0.6 0.6 0 1-0.3 1-0.7 0-0.4-0.2-0.6-1.1-0.8-1-0.2-1.5-0.6-1.5-1.3 0-0.7 0.6-1.2 1.4-1.2 0.7 0 1.1 0.2 1.6 0.6l-0.3 0.4c-0.4-0.4-0.8-0.5-1.3-0.5-0.5 0-0.9 0.3-0.9 0.7 0 0.4 0.2 0.6 1.2 0.8 0.9 0.2 1.4 0.6 1.4 1.3 0 0.7-0.6 1.2-1.5 1.2-0.7 0-1.2-0.3-1.7-0.7z"/></svg>