<svg xmlns="http://www.w3.org/2000/svg" xmlns:xlink="http://www.w3.org/1999/xlink" viewBox="0 0 959 360"><defs><style>.cls-1,.cls-4,.cls-9{fill:none;}.cls-2{isolation:isolate;}.cls-3{clip-path:url(#clip-path);}.cls-4,.cls-9{stroke:#fff;stroke-miterlimit:10;mix-blend-mode:soft-light;}.cls-5{fill:url(#linear-gradient);}.cls-6{opacity:0.5;}.cls-7{fill:#fff;}.cls-8{clip-path:url(#clip-path-2);}.cls-9{stroke-width:0.7px;}</style><clipPath id="clip-path"><rect class="cls-1" x="-1503.47" y="-418.94" width="1368.74" height="912.49"/></clipPath><linearGradient id="linear-gradient" y1="180" x2="959" y2="180" gradientUnits="userSpaceOnUse"><stop offset="0" stop-color="#b90600"/><stop offset="0.28" stop-color="#c20500"/><stop offset="0.74" stop-color="#da0200"/><stop offset="1" stop-color="#eb0000"/></linearGradient><clipPath id="clip-path-2"><rect class="cls-1" x="-0.51" y="-139.84" width="959.51" height="639.68"/></clipPath></defs><g class="cls-2"><g id="Layer_1" data-name="Layer 1"><g class="cls-3"><path class="cls-4" d="M207.68-1168.47s12.84,421.48-394.2,781S-405.47,434.33,26.1,610.93"/><path class="cls-4" d="M306.63-956.5s65.23,302-188.86,521.7S-472.49,7.71-1.52,520.26"/></g><rect class="cls-5" width="959" height="360"/><g class="cls-6"><circle class="cls-7" cx="675.17" cy="229.77" r="2.18"/><circle class="cls-7" cx="702.09" cy="229.77" r="2.18"/><circle class="cls-7" cx="729.01" cy="229.77" r="2.18"/><circle class="cls-7" cx="755.93" cy="229.77" r="2.18"/><path class="cls-7" d="M785,229.77a2.19,2.19,0,1,1-2.18-2.18A2.19,2.19,0,0,1,785,229.77Z"/><circle class="cls-7" cx="675.17" cy="253.38" r="2.18"/><circle class="cls-7" cx="702.09" cy="253.38" r="2.18"/><circle class="cls-7" cx="729.01" cy="253.38" r="2.18"/><circle class="cls-7" cx="755.93" cy="253.38" r="2.18"/><path class="cls-7" d="M785,253.38a2.19,2.19,0,1,1-2.18-2.18A2.19,2.19,0,0,1,785,253.38Z"/><circle class="cls-7" cx="675.17" cy="276.99" r="2.18"/><circle class="cls-7" cx="702.09" cy="276.99" r="2.18"/><circle class="cls-7" cx="729.01" cy="276.99" r="2.18"/><circle class="cls-7" cx="755.93" cy="276.99" r="2.18"/><path class="cls-7" d="M785,277a2.19,2.19,0,1,1-2.18-2.19A2.19,2.19,0,0,1,785,277Z"/><circle class="cls-7" cx="675.17" cy="300.6" r="2.18"/><circle class="cls-7" cx="702.09" cy="300.6" r="2.18"/><circle class="cls-7" cx="729.01" cy="300.6" r="2.18"/><circle class="cls-7" cx="755.93" cy="300.6" r="2.18"/><path class="cls-7" d="M785,300.6a2.19,2.19,0,1,1-2.18-2.19A2.19,2.19,0,0,1,785,300.6Z"/><path class="cls-7" d="M677.35,324.21a2.18,2.18,0,1,1-2.18-2.19A2.18,2.18,0,0,1,677.35,324.21Z"/><path class="cls-7" d="M704.27,324.21a2.18,2.18,0,1,1-2.18-2.19A2.18,2.18,0,0,1,704.27,324.21Z"/><path class="cls-7" d="M731.19,324.21A2.18,2.18,0,1,1,729,322,2.19,2.19,0,0,1,731.19,324.21Z"/><path class="cls-7" d="M758.11,324.21a2.19,2.19,0,1,1-2.18-2.19A2.19,2.19,0,0,1,758.11,324.21Z"/><path class="cls-7" d="M785,324.21a2.19,2.19,0,1,1-2.18-2.19A2.19,2.19,0,0,1,785,324.21Z"/></g><g class="cls-6"><path class="cls-7" d="M45,63.61a1.39,1.39,0,1,1-1.39-1.39A1.39,1.39,0,0,1,45,63.61Z"/><path class="cls-7" d="M62.15,63.61a1.4,1.4,0,1,1-1.39-1.39A1.39,1.39,0,0,1,62.15,63.61Z"/><path class="cls-7" d="M79.29,63.61a1.39,1.39,0,1,1-1.39-1.39A1.39,1.39,0,0,1,79.29,63.61Z"/><path class="cls-7" d="M96.44,63.61a1.39,1.39,0,1,1-1.39-1.39A1.39,1.39,0,0,1,96.44,63.61Z"/><circle class="cls-7" cx="112.19" cy="63.61" r="1.39"/><path class="cls-7" d="M45,78.65a1.39,1.39,0,1,1-1.39-1.39A1.39,1.39,0,0,1,45,78.65Z"/><path class="cls-7" d="M62.15,78.65a1.4,1.4,0,1,1-1.39-1.39A1.39,1.39,0,0,1,62.15,78.65Z"/><path class="cls-7" d="M79.29,78.65a1.39,1.39,0,1,1-1.39-1.39A1.39,1.39,0,0,1,79.29,78.65Z"/><path class="cls-7" d="M96.44,78.65a1.39,1.39,0,1,1-1.39-1.39A1.39,1.39,0,0,1,96.44,78.65Z"/><circle class="cls-7" cx="112.19" cy="78.65" r="1.39"/><path class="cls-7" d="M45,93.69a1.39,1.39,0,1,1-1.39-1.39A1.39,1.39,0,0,1,45,93.69Z"/><path class="cls-7" d="M62.15,93.69a1.4,1.4,0,1,1-1.39-1.39A1.39,1.39,0,0,1,62.15,93.69Z"/><path class="cls-7" d="M79.29,93.69A1.39,1.39,0,1,1,77.9,92.3,1.39,1.39,0,0,1,79.29,93.69Z"/><path class="cls-7" d="M96.44,93.69a1.39,1.39,0,1,1-1.39-1.39A1.39,1.39,0,0,1,96.44,93.69Z"/><path class="cls-7" d="M113.58,93.69a1.39,1.39,0,1,1-1.39-1.39A1.39,1.39,0,0,1,113.58,93.69Z"/><path class="cls-7" d="M45,108.73a1.39,1.39,0,1,1-1.39-1.39A1.39,1.39,0,0,1,45,108.73Z"/><path class="cls-7" d="M62.15,108.73a1.4,1.4,0,1,1-1.39-1.39A1.39,1.39,0,0,1,62.15,108.73Z"/><path class="cls-7" d="M79.29,108.73a1.39,1.39,0,1,1-1.39-1.39A1.39,1.39,0,0,1,79.29,108.73Z"/><path class="cls-7" d="M96.44,108.73a1.39,1.39,0,1,1-1.39-1.39A1.39,1.39,0,0,1,96.44,108.73Z"/><path class="cls-7" d="M113.58,108.73a1.39,1.39,0,1,1-1.39-1.39A1.39,1.39,0,0,1,113.58,108.73Z"/><path class="cls-7" d="M45,123.77a1.39,1.39,0,1,1-1.39-1.4A1.39,1.39,0,0,1,45,123.77Z"/><path class="cls-7" d="M62.15,123.77a1.4,1.4,0,1,1-1.39-1.4A1.4,1.4,0,0,1,62.15,123.77Z"/><path class="cls-7" d="M79.29,123.77a1.39,1.39,0,1,1-1.39-1.4A1.39,1.39,0,0,1,79.29,123.77Z"/><path class="cls-7" d="M96.44,123.77a1.39,1.39,0,1,1-1.39-1.4A1.39,1.39,0,0,1,96.44,123.77Z"/><circle class="cls-7" cx="112.19" cy="123.77" r="1.39"/></g><g class="cls-8"><path class="cls-9" d="M219.82-552.25S338.39-281.47,167.66,58.81,240.15,650.58,567,652.59"/><path class="cls-9" d="M299-470S420.37-290.63,312.55-81.32,44.35,360.85,484.7,571.06"/><path class="cls-9" d="M358.3,888.42c-4.53-4.53-453-153.88-328-471.14S59.9-43.06-208.14-216.87"/><path class="cls-9" d="M1199-665.27s9,295.47-276.34,547.5-153.49,576.09,149,699.89"/><path class="cls-9" d="M1268.41-516.68S1314.14-304.93,1136-151s-413.79,310.21-83.63,669.52"/><path class="cls-9" d="M912.44,566c-2.52-5.89-439.93-284.16-205.65-531.9S906-382,722.14-643.25"/></g></g></g></svg>